<svg width="1024" height="1024" viewBox="0 0 1024 1024" fill="none" xmlns="http://www.w3.org/2000/svg">
<path d="M596.772 176.089C562.544 181.732 537.154 192.452 513.834 211.259C491.641 229.125 473.022 254.515 469.449 271.629C467.38 281.409 467.568 283.101 471.33 290.812C476.596 301.72 487.128 307.55 501.797 307.55C515.902 307.738 525.494 302.661 545.994 284.042C565.741 266.175 579.094 256.96 595.268 249.813C610.314 243.23 630.061 238.341 635.891 239.845C642.474 241.35 666.735 266.363 678.583 283.477C711.683 331.435 727.481 401.585 719.206 463.46C716.009 488.098 717.137 498.63 723.908 508.409C733.311 521.574 758.137 525.9 775.815 517.249C794.434 508.221 816.062 481.703 825.842 456.126C850.667 390.865 844.461 308.115 811.172 258.088C776.003 205.052 718.266 176.277 642.85 174.209C622.538 173.645 608.433 174.209 596.772 176.089ZM662.597 190.195C680.276 192.075 706.041 198.094 713.94 202.231C718.266 204.488 717.702 204.676 707.546 204.864C691.56 205.428 653.57 208.814 638.148 211.07C625.547 212.951 624.419 212.763 610.314 207.309C602.415 203.924 591.13 200.35 585.112 199.222C575.897 197.341 575.144 196.777 579.094 195.461C595.456 189.442 632.882 186.997 662.597 190.195ZM576.649 213.703C589.814 216.336 608.621 222.919 611.63 225.928C612.57 226.868 609.185 228.749 603.919 230.254C591.695 234.015 576.837 241.538 562.544 251.317L551.071 259.404L527.375 251.882C514.398 247.744 503.678 243.795 503.678 242.854C503.678 240.221 521.921 223.671 530.948 218.029C542.796 210.506 556.149 209.378 576.649 213.703ZM756.82 223.859C773.746 235.708 786.347 248.496 796.127 263.542C804.966 277.083 812.677 291.753 811.737 292.693C811.36 293.069 801.393 294.385 789.544 295.514C760.958 298.147 718.078 303.037 713.188 304.165C709.991 304.917 708.298 303.225 703.408 294.197C689.867 268.808 666.547 241.35 647.551 228.373C640.969 223.859 640.593 223.295 644.166 221.979C652.817 218.781 689.491 215.584 723.908 215.02L743.843 214.644L756.82 223.859ZM516.843 259.028C527.751 262.602 537.53 265.987 538.847 266.363C541.856 267.303 521.733 286.487 513.269 290.812C508.944 292.881 504.43 293.633 499.54 293.069C485.623 291.188 480.921 282.725 485.999 269.184C489.384 260.157 494.086 252.258 495.779 252.258C496.531 252.258 505.935 255.267 516.843 259.028ZM818.883 314.321C823.773 330.307 825.278 343.66 825.278 367.921C825.278 394.251 821.14 428.479 817.191 432.241C815.874 433.557 801.205 435.626 781.081 437.507C762.462 439.011 744.972 440.892 742.339 441.456L737.449 442.397L736.321 414.562C735.004 384.659 731.431 364.724 721.651 335.573C718.454 325.981 716.385 317.33 716.949 316.39C717.514 315.637 729.174 313.381 742.903 311.688C756.632 309.995 773.935 307.927 781.081 306.986C788.416 306.046 799.324 305.482 805.342 305.67L816.438 305.858L818.883 314.321ZM813.993 445.406C813.993 449.355 799.324 475.309 791.801 484.712C773.182 507.657 751.742 514.239 737.825 501.263C732.559 496.561 732.559 496.185 733.688 479.07C734.44 469.479 735.756 459.323 736.697 456.69C738.577 451.988 739.518 451.612 749.485 451.424C757.761 451.424 799.136 446.722 812.677 444.277C813.429 444.277 813.993 444.653 813.993 445.406Z" fill="black"/>
<path d="M696.762 520.225C685.986 525.837 685.986 525.837 661.515 522.919C624.472 518.429 600.226 525.388 585.633 544.696C579.796 552.329 579.796 552.778 583.837 555.696C587.654 558.615 588.776 557.941 594.613 550.982C598.205 546.492 605.389 540.655 610.328 537.961C619.084 533.471 622.227 533.022 655.229 533.695C686.211 534.144 692.048 533.695 700.579 529.878C711.804 524.939 714.723 521.347 710.457 517.306C707.988 515.061 705.293 515.51 696.762 520.225Z" fill="black"/>
<path d="M745.704 539.757C734.928 548.512 724.152 550.084 678.128 549.41C637.493 548.737 635.024 548.961 624.921 553.9C619.084 556.819 610.777 563.329 606.063 568.268C598.205 577.024 597.981 577.698 601.797 580.616C607.634 584.657 608.532 584.433 611.9 577.698C613.696 574.555 619.758 569.166 625.37 566.023C635.473 559.962 635.697 559.962 680.373 559.962C730.887 559.962 738.969 558.39 752.439 546.492C759.623 539.981 760.521 538.41 757.827 536.389C753.337 533.47 753.113 533.47 745.704 539.757Z" fill="black"/>
<path d="M772.869 546.267C765.46 554.798 757.603 560.86 747.276 566.023C732.458 573.207 731.56 573.432 699.681 573.881C665.332 574.105 654.78 575.452 645.575 580.167C638.84 583.759 629.86 591.841 629.86 594.535C629.86 598.801 637.493 599.025 643.33 594.76C654.78 586.453 661.964 585.331 697.211 584.882C727.295 584.433 733.805 583.759 744.582 579.493C764.787 571.411 795.993 540.654 788.809 535.94C784.319 533.246 784.094 533.47 772.869 546.267Z" fill="black"/>
<path d="M455.088 322.012C403.398 389.227 350.792 445.166 310.995 475.479C292.393 489.683 279.432 497.737 259.61 507.988C251.681 512.088 245.581 515.603 245.886 516.042C247.106 517.067 271.046 511.209 283.549 506.816C340.119 487.34 398.061 439.894 460.425 362.429C466.677 354.521 472.624 348.224 473.386 348.224C474.301 348.224 482.535 357.45 491.683 368.725C522.942 407.092 557.86 442.237 585.306 463.471C619.614 489.976 663.07 510.331 692.956 514.285C700.428 515.31 700.428 515.163 683.045 505.938C673.439 500.812 662.156 494.515 657.886 491.733C607.568 459.224 553.59 403.431 485.889 313.958C479.18 305.318 473.691 298.289 473.538 298.289C473.386 298.289 465.152 308.979 455.088 322.012Z" fill="black"/>
<path d="M438 494.523V521.858H452.327H466.466L465.9 494.9L465.335 468.131L451.762 467.566L438 467V494.523Z" fill="black"/>
<path d="M478.908 468.32C478.154 469.074 477.588 481.516 477.588 495.843V521.858H491.538H505.677L504.923 494.9L504.169 468.131L492.292 467.566C485.694 467.189 479.662 467.566 478.908 468.32Z" fill="black"/>
<path d="M272.544 617.053H697.702V636.062H257.573L272.544 617.053Z" fill="black"/>
<path d="M332.147 599.616L332.147 482.419L349.693 478.142L349.693 603.893L332.147 599.616Z" fill="black"/>
<path d="M206.148 736.113L205.119 715.337L233.287 685.11H253.688L225.614 715.524L215.319 726.286L206.148 736.113ZM189.584 750.618V685.11H207.926V750.618H189.584ZM233.568 750.618L212.231 723.573L224.303 710.658L255.092 750.618H233.568ZM259.954 750.618V685.11H278.483V750.618H259.954ZM305.609 750.618V699.803H285.489V685.11H344.165V699.803H324.139V750.618H305.609ZM368.1 710.471H398.515V724.321H368.1V710.471ZM369.411 736.3H403.662V750.618H351.069V685.11H402.445V699.428H369.411V736.3ZM457.741 685.11H476.27V750.618H457.741V685.11ZM432.473 750.618H413.944V685.11H432.473V750.618ZM459.051 725.07H431.163V709.722H459.051V725.07ZM522.374 751.928C517.134 751.928 512.299 751.086 507.869 749.401C503.44 747.717 499.572 745.346 496.265 742.289C493.021 739.17 490.494 735.551 488.685 731.433C486.876 727.316 485.971 722.793 485.971 717.864C485.971 712.935 486.876 708.412 488.685 704.295C490.494 700.177 493.021 696.59 496.265 693.533C499.572 690.413 503.44 688.011 507.869 686.327C512.299 684.642 517.134 683.8 522.374 683.8C527.677 683.8 532.513 684.642 536.88 686.327C541.309 688.011 545.146 690.413 548.39 693.533C551.634 696.59 554.161 700.177 555.97 704.295C557.842 708.412 558.778 712.935 558.778 717.864C558.778 722.793 557.842 727.347 555.97 731.527C554.161 735.645 551.634 739.232 548.39 742.289C545.146 745.346 541.309 747.717 536.88 749.401C532.513 751.086 527.677 751.928 522.374 751.928ZM522.374 736.58C524.87 736.58 527.178 736.144 529.3 735.27C531.483 734.397 533.355 733.149 534.914 731.527C536.537 729.843 537.784 727.846 538.658 725.538C539.594 723.229 540.061 720.671 540.061 717.864C540.061 714.994 539.594 712.436 538.658 710.19C537.784 707.882 536.537 705.917 534.914 704.295C533.355 702.61 531.483 701.331 529.3 700.458C527.178 699.584 524.87 699.148 522.374 699.148C519.879 699.148 517.539 699.584 515.356 700.458C513.235 701.331 511.363 702.61 509.741 704.295C508.181 705.917 506.933 707.882 505.998 710.19C505.124 712.436 504.687 714.994 504.687 717.864C504.687 720.671 505.124 723.229 505.998 725.538C506.933 727.846 508.181 729.843 509.741 731.527C511.363 733.149 513.235 734.397 515.356 735.27C517.539 736.144 519.879 736.58 522.374 736.58ZM598.71 751.928C589.04 751.928 581.491 749.276 576.063 743.973C570.635 738.67 567.921 731.153 567.921 721.42V685.11H586.45V720.859C586.45 726.474 587.542 730.498 589.726 732.931C591.972 735.364 595.029 736.58 598.897 736.58C602.765 736.58 605.791 735.364 607.974 732.931C610.158 730.498 611.25 726.474 611.25 720.859V685.11H629.498V721.42C629.498 731.153 626.784 738.67 621.357 743.973C615.929 749.276 608.38 751.928 598.71 751.928ZM665.072 751.928C659.707 751.928 654.528 751.273 649.537 749.963C644.609 748.59 640.585 746.843 637.465 744.722L643.548 731.059C646.48 732.931 649.849 734.49 653.655 735.738C657.523 736.924 661.36 737.516 665.166 737.516C667.723 737.516 669.782 737.298 671.342 736.861C672.902 736.362 674.025 735.738 674.711 734.99C675.46 734.179 675.834 733.243 675.834 732.182C675.834 730.685 675.148 729.499 673.775 728.626C672.403 727.753 670.625 727.035 668.441 726.474C666.257 725.912 663.824 725.351 661.142 724.789C658.521 724.228 655.87 723.51 653.187 722.637C650.567 721.763 648.165 720.64 645.981 719.268C643.798 717.833 642.02 715.992 640.647 713.746C639.274 711.438 638.588 708.537 638.588 705.043C638.588 701.113 639.649 697.557 641.77 694.375C643.954 691.193 647.198 688.635 651.503 686.701C655.807 684.767 661.173 683.8 667.599 683.8C671.903 683.8 676.115 684.299 680.232 685.297C684.412 686.233 688.124 687.637 691.369 689.509L685.66 703.265C682.541 701.581 679.452 700.333 676.395 699.522C673.338 698.648 670.375 698.212 667.505 698.212C664.947 698.212 662.888 698.493 661.329 699.054C659.769 699.553 658.646 700.239 657.96 701.113C657.273 701.986 656.93 702.984 656.93 704.107C656.93 705.542 657.585 706.697 658.896 707.57C660.268 708.381 662.046 709.067 664.23 709.629C666.476 710.128 668.909 710.658 671.529 711.22C674.212 711.781 676.863 712.499 679.484 713.372C682.166 714.183 684.599 715.306 686.783 716.741C688.967 718.114 690.714 719.954 692.024 722.262C693.396 724.508 694.082 727.347 694.082 730.778C694.082 734.584 692.991 738.109 690.807 741.353C688.686 744.535 685.473 747.093 681.168 749.027C676.926 750.961 671.56 751.928 665.072 751.928ZM719.674 710.471H750.088V724.321H719.674V710.471ZM720.984 736.3H755.235V750.618H702.642V685.11H754.018V699.428H720.984V736.3ZM225.629 840.928C220.263 840.928 215.085 840.273 210.094 838.963C205.165 837.59 201.141 835.843 198.022 833.722L204.105 820.059C207.037 821.931 210.406 823.49 214.211 824.738C218.08 825.924 221.916 826.516 225.722 826.516C228.28 826.516 230.339 826.298 231.899 825.861C233.458 825.362 234.581 824.738 235.267 823.99C236.016 823.179 236.39 822.243 236.39 821.182C236.39 819.685 235.704 818.499 234.332 817.626C232.959 816.753 231.181 816.035 228.997 815.474C226.814 814.912 224.381 814.351 221.698 813.789C219.078 813.228 216.426 812.51 213.744 811.637C211.123 810.763 208.721 809.64 206.538 808.268C204.354 806.833 202.576 804.992 201.204 802.746C199.831 800.438 199.145 797.537 199.145 794.043C199.145 790.113 200.205 786.557 202.327 783.375C204.51 780.193 207.754 777.635 212.059 775.701C216.364 773.767 221.729 772.8 228.155 772.8C232.46 772.8 236.671 773.299 240.789 774.297C244.969 775.233 248.681 776.637 251.925 778.509L246.217 792.265C243.097 790.581 240.009 789.333 236.952 788.522C233.895 787.648 230.931 787.212 228.062 787.212C225.504 787.212 223.445 787.493 221.885 788.054C220.326 788.553 219.203 789.239 218.516 790.113C217.83 790.986 217.487 791.984 217.487 793.107C217.487 794.542 218.142 795.697 219.452 796.57C220.825 797.381 222.603 798.067 224.786 798.629C227.032 799.128 229.465 799.658 232.086 800.22C234.768 800.781 237.42 801.499 240.04 802.372C242.723 803.183 245.156 804.306 247.34 805.741C249.523 807.114 251.27 808.954 252.58 811.262C253.953 813.508 254.639 816.347 254.639 819.778C254.639 823.584 253.547 827.109 251.364 830.353C249.242 833.535 246.029 836.093 241.725 838.027C237.482 839.961 232.117 840.928 225.629 840.928ZM296.233 840.928C290.992 840.928 286.157 840.086 281.727 838.401C277.298 836.717 273.43 834.346 270.123 831.289C266.879 828.17 264.352 824.551 262.543 820.433C260.734 816.316 259.829 811.793 259.829 806.864C259.829 801.935 260.734 797.412 262.543 793.295C264.352 789.177 266.879 785.59 270.123 782.533C273.43 779.413 277.298 777.011 281.727 775.327C286.157 773.642 290.992 772.8 296.233 772.8C301.536 772.8 306.371 773.642 310.738 775.327C315.167 777.011 319.004 779.413 322.248 782.533C325.493 785.59 328.019 789.177 329.829 793.295C331.7 797.412 332.636 801.935 332.636 806.864C332.636 811.793 331.7 816.347 329.829 820.527C328.019 824.645 325.493 828.232 322.248 831.289C319.004 834.346 315.167 836.717 310.738 838.401C306.371 840.086 301.536 840.928 296.233 840.928ZM296.233 825.58C298.728 825.58 301.037 825.144 303.158 824.27C305.341 823.397 307.213 822.149 308.773 820.527C310.395 818.843 311.643 816.846 312.516 814.538C313.452 812.229 313.92 809.671 313.92 806.864C313.92 803.994 313.452 801.436 312.516 799.19C311.643 796.882 310.395 794.917 308.773 793.295C307.213 791.61 305.341 790.331 303.158 789.458C301.037 788.584 298.728 788.148 296.233 788.148C293.737 788.148 291.398 788.584 289.214 789.458C287.093 790.331 285.221 791.61 283.599 793.295C282.039 794.917 280.792 796.882 279.856 799.19C278.982 801.436 278.546 803.994 278.546 806.864C278.546 809.671 278.982 812.229 279.856 814.538C280.792 816.846 282.039 818.843 283.599 820.527C285.221 822.149 287.093 823.397 289.214 824.27C291.398 825.144 293.737 825.58 296.233 825.58ZM342.341 839.618V774.11H360.87V824.925H392.127V839.618H342.341ZM416.491 799.471H446.905V813.321H416.491V799.471ZM417.801 825.3H452.052V839.618H399.459V774.11H450.836V788.428H417.801V825.3ZM462.335 839.618V774.11H493.31C500.547 774.11 506.911 775.452 512.401 778.134C517.891 780.817 522.165 784.591 525.222 789.458C528.341 794.324 529.901 800.126 529.901 806.864C529.901 813.54 528.341 819.342 525.222 824.27C522.165 829.137 517.891 832.911 512.401 835.594C506.911 838.276 500.547 839.618 493.31 839.618H462.335ZM480.864 824.832H492.562C496.305 824.832 499.549 824.146 502.294 822.773C505.102 821.338 507.285 819.279 508.845 816.597C510.405 813.851 511.184 810.607 511.184 806.864C511.184 803.058 510.405 799.814 508.845 797.131C507.285 794.449 505.102 792.421 502.294 791.049C499.549 789.614 496.305 788.896 492.562 788.896H480.864V824.832ZM530.875 839.618L559.792 774.11H578.04L607.051 839.618H587.773L565.126 783.188H572.425L549.778 839.618H530.875ZM546.69 826.891L551.463 813.228H583.468L588.241 826.891H546.69ZM612.304 839.618V774.11H643.279C650.516 774.11 656.88 775.452 662.37 778.134C667.86 780.817 672.134 784.591 675.191 789.458C678.31 794.324 679.87 800.126 679.87 806.864C679.87 813.54 678.31 819.342 675.191 824.27C672.134 829.137 667.86 832.911 662.37 835.594C656.88 838.276 650.516 839.618 643.279 839.618H612.304ZM630.833 824.832H642.531C646.274 824.832 649.518 824.146 652.263 822.773C655.071 821.338 657.254 819.279 658.814 816.597C660.374 813.851 661.154 810.607 661.154 806.864C661.154 803.058 660.374 799.814 658.814 797.131C657.254 794.449 655.071 792.421 652.263 791.049C649.518 789.614 646.274 788.896 642.531 788.896H630.833V824.832ZM706.651 799.471H737.065V813.321H706.651V799.471ZM707.961 825.3H742.212V839.618H689.619V774.11H740.995V788.428H707.961V825.3Z" fill="black"/>
</svg>
